<svg width="39" height="37" viewBox="0 0 39 37" fill="none" xmlns="http://www.w3.org/2000/svg">
<path d="M28.13 22.7479L27.1813 23.0639L28.13 22.7479L37.0132 16.4513C38.6035 15.324 37.806 12.8197 35.8566 12.8197L24.8235 12.8197L21.3975 2.5328L20.5167 2.82617L21.3975 2.5328C20.79 0.708744 18.21 0.708755 17.6025 2.53281L14.1765 12.8197H3.14339C1.19401 12.8197 0.396446 15.324 1.98683 16.4513L10.87 22.7479L7.46694 32.9659C6.85616 34.7999 8.94403 36.3474 10.521 35.2295L19.5 28.8651L28.479 35.2295C30.056 36.3474 32.1438 34.7999 31.5331 32.9659L28.13 22.7479Z" stroke="#F5F5F5" stroke-width="2"/>
</svg>
